<svg id="Layer_1" data-name="Layer 1" xmlns="http://www.w3.org/2000/svg" viewBox="0 0 17.45 23.61"><defs><style>.cls-1,.cls-3{fill:#3dbf26;}.cls-1,.cls-2{stroke:#fff;stroke-miterlimit:10;stroke-width:0.25px;}.cls-2,.cls-4{fill:#fff;}</style></defs><title>active-plug</title><path class="cls-1" d="M12.4.4A8.52,8.52,0,0,0,3.8,8.85c0,7.53,8.6,14.87,8.6,14.87S21,16.24,21,8.85A8.52,8.52,0,0,0,12.4.4Z" transform="translate(-3.67 -0.27)"/><path class="cls-2" d="M12.4,2A6.76,6.76,0,0,0,5.8,8.92c0,6.16,6.6,12.16,6.6,12.16S19,15,19,8.92A6.76,6.76,0,0,0,12.4,2Z" transform="translate(-3.67 -0.27)"/><rect class="cls-3" x="6.08" y="4.77" width="1.5" height="6.21"/><rect class="cls-3" x="9.91" y="4.98" width="1.5" height="5.83"/><rect class="cls-3" x="4.87" y="6.94" width="1.21" height="1.29"/><ellipse class="cls-3" cx="8.74" cy="13.64" rx="0.92" ry="1.17"/><rect class="cls-4" x="7.24" y="14.27" width="2.88" height="1.21"/></svg>