<svg xmlns="http://www.w3.org/2000/svg" viewBox="0 0 16.66 22.54"><defs><style>.cls-1,.cls-3{fill:#8e938a;}.cls-1,.cls-2{stroke:#fff;stroke-miterlimit:10;stroke-width:0.25px;}.cls-2{fill:#fff;}</style></defs><title>Asset 2</title><g id="Layer_2" data-name="Layer 2"><g id="Layer_1-2" data-name="Layer 1"><path class="cls-1" d="M8.33.13A8.12,8.12,0,0,0,.13,8.19c0,7.18,8.2,14.18,8.2,14.18s8.2-7.13,8.2-14.18A8.12,8.12,0,0,0,8.33.13Z"/><path class="cls-2" d="M8.2,1.69a6.45,6.45,0,0,0-6.29,6.6c0,5.88,6.29,11.6,6.29,11.6s6.3-5.84,6.3-11.6A6.45,6.45,0,0,0,8.2,1.69Z"/><path class="cls-3" d="M12,10.12l.5.51a4.72,4.72,0,0,0,.37-2.32s0-1-1.84-2.35a.74.74,0,0,1-.85-.82l-.72-.7L8.1,5.72l.65.63s1.58.07,1,1.33L7.42,10,7,10,4.28,12.62a1,1,0,0,0,.29,1,1.17,1.17,0,0,0,.94.34l2.64-2.71,0-.44,2.68-2.64s.15-.24.41,0c0,0,.7.31.66,1.93Z"/><path class="cls-3" d="M6.19,8.48,7,9.33,8.2,8.19l-.9-.87c.94-2.13-1.74-2.95-1.74-2.95-.51-.13-.41.24-.41.24,1,.87.89,1.13.89,1.13a1.85,1.85,0,0,1-1,1.38c-.9.37-1.6-.82-1.6-.82-.29,0-.24.27-.24.27.68,3,3,1.91,3,1.91Zm6.51,4.14L10,10.1,8.87,11.26l2.52,2.64a.24.24,0,0,0,.14.07.2.2,0,0,0,.13-.05l1.06-1s0,0,0-.12a.18.18,0,0,0-.07-.14Zm-.66,0-.14.44s-.07.09-.12.09h-.46a.16.16,0,0,1-.12-.09l-.15-.44a.11.11,0,0,1,0-.14l.39-.27a.25.25,0,0,1,.17,0l.38.27v.14Z"/></g></g></svg>