<svg xmlns="http://www.w3.org/2000/svg" viewBox="0 0 17.45 23.61"><defs><style>.cls-1{fill:#fe7f3d;}.cls-1,.cls-2{stroke:#fff;stroke-miterlimit:10;stroke-width:0.25px;}.cls-2,.cls-4{fill:#fff;}.cls-3{fill:#fe7f2d;}</style></defs><title>Asset 5</title><g id="Layer_2" data-name="Layer 2"><g id="Layer_1-2" data-name="Layer 1"><path class="cls-1" d="M8.73.13A8.51,8.51,0,0,0,.13,8.58c0,7.53,8.6,14.87,8.6,14.87s8.6-7.49,8.6-14.87A8.52,8.52,0,0,0,8.73.13Z"/><path class="cls-2" d="M8.73,1.73a6.75,6.75,0,0,0-6.6,6.91c0,6.16,6.6,12.16,6.6,12.16s6.6-6.12,6.6-12.16A6.76,6.76,0,0,0,8.73,1.73Z"/><rect class="cls-3" x="6.08" y="4.77" width="1.5" height="6.21"/><rect class="cls-3" x="9.91" y="4.98" width="1.5" height="5.83"/><rect class="cls-3" x="4.87" y="6.94" width="1.21" height="1.29"/><ellipse class="cls-3" cx="8.74" cy="13.64" rx="0.92" ry="1.17"/><rect class="cls-4" x="7.24" y="14.27" width="2.88" height="1.21"/></g></g></svg>