<svg xmlns="http://www.w3.org/2000/svg" viewBox="0 0 16.66 22.54"><defs><style>.cls-1{fill:#8e938a;stroke:#fff;stroke-miterlimit:10;stroke-width:0.25px;}.cls-2{fill:#fff;}</style></defs><title>Asset 3</title><g id="Layer_2" data-name="Layer 2"><g id="Layer_1-2" data-name="Layer 1"><path class="cls-1" d="M8.33.13A8.12,8.12,0,0,0,.13,8.19c0,7.18,8.2,14.18,8.2,14.18s8.2-7.13,8.2-14.18A8.12,8.12,0,0,0,8.33.13Z"/><path class="cls-2" d="M12,10.79l.5.51A4.72,4.72,0,0,0,12.82,9s0-1-1.84-2.35a.74.74,0,0,1-.85-.82L9.41,5.1,8.1,6.39,8.75,7s1.58.07,1,1.33L7.42,10.69,7,10.62,4.28,13.28a1,1,0,0,0,.29,1,1.13,1.13,0,0,0,.94.34L8.15,12l0-.43,2.68-2.64s.15-.24.41,0c0,0,.7.31.66,1.93Z"/><path class="cls-2" d="M6.19,9.15,7,10,8.2,8.86,7.3,8C8.24,5.85,5.56,5,5.56,5c-.51-.12-.41.24-.41.24,1,.88.89,1.14.89,1.14a1.87,1.87,0,0,1-1,1.38c-.9.36-1.6-.82-1.6-.82-.29,0-.24.26-.24.26.68,3,3,1.92,3,1.92Zm6.51,4.13L10,10.77,8.87,11.93l2.52,2.64a.24.24,0,0,0,.14.07.2.2,0,0,0,.13-.05l1.06-1s0,0,0-.12a.19.19,0,0,0-.07-.15Zm-.66,0-.14.43s-.07.1-.12.1h-.46a.15.15,0,0,1-.12-.1l-.15-.43a.13.13,0,0,1,0-.15l.39-.26a.17.17,0,0,1,.17,0l.38.26v.15Z"/></g></g></svg>